<svg width="448" height="512" xmlns="http://www.w3.org/2000/svg" xmlns:xlink="http://www.w3.org/1999/xlink">
 <!-- Created with SVG-edit - http://svg-edit.googlecode.com/ -->
 <g>
  <title>Layer 1</title>
  <image stroke="null" xlink:href="file:///C:/!WORKS/fourier/clue.jpg" id="svg_1" height="344.000006" width="511.999991" y="57" x="-419"/>
  <path id="svg_2" d="m177,404c-4.25,6.25 7.25,17.75 25.0625,18.0625c17.8125,0.3125 26.9375,-14.5625 26.9375,-29.0625c0,-14.5 -23,-207 -26,-242c-3,-35 14,-75 30,-75c16,0 31,78 7,105c-24,27 -60,44 -73,74c-13,30 -7,42 1,57c8,15 31,27 54,23c23,-4 33,-25 26,-50c-3.5,-12.5 -17,-21.5 -27.875,-20.875c-10.875,0.625 -28.125,14.54167 -25.125,30.875c3,16.33333 9,13.66667 13,21c-6.5,4.5 -14.5,-2.75 -19.5,-7.375c-5,-4.625 -13,-21.625 -5.5,-37.625c7.5,-16 18,-20 31,-24c13,-4 39,0 48,24c9,24 3,56 -23,68c-26,12 -51,7 -71,-9c-20,-16 -29,-45 -20,-75c9,-30 40,-55 55,-70c15,-15 34,-33 39,-53c5,-20 1,-29 -5,-29c-6,0 -15,11 -19,20c-4,9 -4,25 -5,32c-1,7 22,209 24,228c2,19 -3,35 -14,43c-11,8 -34,9 -50,-5c-16,-14 -18,-31 -11,-46c7,-15 29,-20 38,-5c9,15 0,33 -15,30.375l-3,0.3125c-1.66667,1.10417 -3.33333,2.20833 -5,3.3125z" stroke-width="5" stroke="#000000" fill="#FF0000"/>
 </g>
</svg>